<svg id="Isolation_Mode" data-name="Isolation Mode" xmlns="http://www.w3.org/2000/svg" xmlns:xlink="http://www.w3.org/1999/xlink" viewBox="0 0 436.13 235.48"><defs><style>.cls-1,.cls-25,.cls-26,.cls-27,.cls-9{fill:none;}.cls-18,.cls-2{fill:#392839;}.cls-10,.cls-3{fill:#2c1d2b;}.cls-4{fill:#ac5653;}.cls-5{fill:#8a423c;}.cls-6{fill:#ec604a;}.cls-7{opacity:0.9;}.cls-8{clip-path:url(#clip-path);}.cls-9{stroke:#fcecee;stroke-width:1.68px;}.cls-25,.cls-26,.cls-27,.cls-28,.cls-9{stroke-miterlimit:10;}.cls-10,.cls-18{opacity:0.3;}.cls-11{fill:#fff;}.cls-12{fill:#f5a697;}.cls-13{fill:#e28b81;}.cls-14{fill:#67a9d4;}.cls-15{fill:#6197c3;}.cls-16{fill:#f4994c;}.cls-17{fill:#ee8b4c;}.cls-19{fill:#ea544f;}.cls-20{fill:#f39877;}.cls-21{fill:#db8068;}.cls-22{fill:#4d888a;}.cls-23{fill:#5c9d9f;}.cls-24{fill:#b46855;}.cls-25,.cls-26,.cls-27,.cls-28{stroke:#83636f;}.cls-25{stroke-width:1.01px;}.cls-26{stroke-width:0.55px;}.cls-27,.cls-28{stroke-width:0.79px;}.cls-28{fill:#9fc7e0;}.cls-29{fill:#64a9ab;}.cls-30{fill:#85c9d7;}.cls-31{fill:#f5a162;}.cls-32{fill:#dcd529;}.cls-33{fill:#ed6ea7;}</style><clipPath id="clip-path" transform="translate(-410.04 -4.47)"><path class="cls-1" d="M639.63,204.58c-2-1.07-3-3.74-3.53-6.61a40.83,40.83,0,0,1-9,1,41.49,41.49,0,0,1-8.82-.93c-.5,2.86-1.52,5.5-3.51,6.57-5.21,2.8-36,4.19-32.65,35.37h90.12C675.59,208.77,644.83,207.38,639.63,204.58Z"/></clipPath></defs><path class="cls-2" d="M610.53,175.89s-4.84-1.07-5.55,3.05,2.15,5,2.15,5-4.3-4.83-7.35-1.43,2,6.27,2,6.27-5.55-3-6.62.71,3.4,6.09,3.4,6.09-4.83-.36-4.65,1.79,4.83.36,4.83.36-6.8,1.25-5.73,6.63,6.45,2.32,6.45,2.32-4.12,2.15-3,9,31.7-7,31.7-7l.53-18.44Z" transform="translate(-410.04 -4.47)"/><path class="cls-2" d="M645.87,175.89s4.83-1.07,5.55,3.05-2.15,5-2.15,5,4.3-4.83,7.34-1.43-2,6.27-2,6.27,5.55-3,6.63.71-3.4,6.09-3.4,6.09,4.83-.36,4.65,1.79-4.83.36-4.83.36,6.8,1.25,5.73,6.63-6.45,2.32-6.45,2.32,4.12,2.15,3,9-31.7-7-31.7-7l-.54-18.44Z" transform="translate(-410.04 -4.47)"/><path class="cls-3" d="M610.53,175.89s-4.84-1.07-5.55,3.05,2.15,5,2.15,5-4.3-4.83-7.35-1.43,2,6.27,2,6.27-5.55-3-6.62.71,3.4,6.09,3.4,6.09-4.83-.36-4.65,1.79,4.83.36,4.83.36-6.8,1.25-5.73,6.63,6.45,2.32,6.45,2.32-4.12,2.15-3,9,31.7-7,31.7-7l.53-18.44Z" transform="translate(-410.04 -4.47)"/><path class="cls-3" d="M645.87,175.89s4.83-1.07,5.55,3.05-2.15,5-2.15,5,4.3-4.83,7.34-1.43-2,6.27-2,6.27,5.55-3,6.63.71-3.4,6.09-3.4,6.09,4.83-.36,4.65,1.79-4.83.36-4.83.36,6.8,1.25,5.73,6.63-6.45,2.32-6.45,2.32,4.12,2.15,3,9-31.7-7-31.7-7l-.54-18.44Z" transform="translate(-410.04 -4.47)"/><path class="cls-4" d="M639.36,205.08c-5.05-2.75-3.67-16.06-3.67-16.06l-7.56.49V189l-.81.24-.81-.24v.48L619,189s1.37,13.31-3.67,16.06-34.87,4.13-31.66,34.87H671C674.23,209.21,644.41,207.84,639.36,205.08Z" transform="translate(-410.04 -4.47)"/><path class="cls-5" d="M617.9,201.65q9-1.35,18.1-2.78a40.41,40.41,0,0,1-.31-9.85l-7.56.49V189l-.81.24-.81-.24v.48L619,189S619.75,196.76,617.9,201.65Z" transform="translate(-410.04 -4.47)"/><path class="cls-6" d="M639.63,204.58c-2-1.07-3-3.74-3.53-6.61a40.83,40.83,0,0,1-9,1,41.49,41.49,0,0,1-8.82-.93c-.5,2.86-1.52,5.5-3.51,6.57-5.21,2.8-36,4.19-32.65,35.37h90.12C675.59,208.77,644.83,207.38,639.63,204.58Z" transform="translate(-410.04 -4.47)"/><g class="cls-7"><g class="cls-8"><line class="cls-9" x1="166.75" y1="197.69" x2="265.71" y2="197.69"/><line class="cls-9" x1="166.75" y1="202.51" x2="265.71" y2="202.51"/><line class="cls-9" x1="166.75" y1="207.34" x2="265.71" y2="207.34"/><line class="cls-9" x1="166.75" y1="212.16" x2="265.71" y2="212.16"/><line class="cls-9" x1="166.75" y1="216.99" x2="265.71" y2="216.99"/><line class="cls-9" x1="166.75" y1="221.81" x2="265.71" y2="221.81"/><line class="cls-9" x1="166.75" y1="226.64" x2="265.71" y2="226.64"/><line class="cls-9" x1="166.75" y1="231.46" x2="265.71" y2="231.46"/></g></g><path class="cls-10" d="M585.08,240h87.19c1.09-10.23-1.49-17.25-5.63-22.17C639.28,224.48,612.35,232.86,585.08,240Z" transform="translate(-410.04 -4.47)"/><path class="cls-5" d="M612.55,169.55c-1.49-4.62-5-3.55-5.34-3.44s-4,.58-3.36,5.39,3.44,7.45,6.07,6.69C612.63,177.76,614,174.19,612.55,169.55Z" transform="translate(-410.04 -4.47)"/><path class="cls-5" d="M642.24,169.55c1.48-4.62,5-3.55,5.33-3.44s4,.58,3.36,5.39-3.44,7.45-6.07,6.69C642.16,177.76,640.74,174.19,642.24,169.55Z" transform="translate(-410.04 -4.47)"/><path class="cls-4" d="M608.94,162.56c1.84-20.23,17.22-19.09,18.67-18.94,1.45-.15,16.82-1.29,18.66,18.94s-7.2,33.63-18.66,32.9C616.15,196.19,607.09,182.9,608.94,162.56Z" transform="translate(-410.04 -4.47)"/><path class="cls-5" d="M630.26,172.07a15.11,15.11,0,0,1,1,2.91,23,23,0,0,1,.57,3l0,.22-.12.11a29.79,29.79,0,0,1-2.58,2.16,28.28,28.28,0,0,1,2.06-2.67l-.09.33a20.43,20.43,0,0,1-.69-3A14.25,14.25,0,0,1,630.26,172.07Z" transform="translate(-410.04 -4.47)"/><path class="cls-11" d="M635.44,184.1c-3.66,3.56-9.86,3.36-14.55.19" transform="translate(-410.04 -4.47)"/><path class="cls-2" d="M642.11,165.22a11.94,11.94,0,0,0-4.83-2,5.05,5.05,0,0,0-2.38.33,9.67,9.67,0,0,0-1.2.54c-.4.21-.78.48-1.24.7a7.14,7.14,0,0,1,.78-1.26,5.21,5.21,0,0,1,1.13-1,4.55,4.55,0,0,1,3-.78,5.57,5.57,0,0,1,2.85,1.16A5.72,5.72,0,0,1,642.11,165.22Z" transform="translate(-410.04 -4.47)"/><path class="cls-2" d="M623,165.22a11.83,11.83,0,0,0-4.83-2,5,5,0,0,0-2.37.33,9.67,9.67,0,0,0-1.2.54c-.41.21-.78.48-1.24.7a7.08,7.08,0,0,1,.77-1.26,5.5,5.5,0,0,1,1.14-1,4.53,4.53,0,0,1,3-.78,6,6,0,0,1,4.7,3.45Z" transform="translate(-410.04 -4.47)"/><path class="cls-2" d="M622.35,172.55a5.9,5.9,0,0,0-1.12-2.32,2.7,2.7,0,0,0-2.09-1,2.38,2.38,0,0,0-2.09.88,4.81,4.81,0,0,0-.81,2.41,3.81,3.81,0,0,1,.39-2.69,2.49,2.49,0,0,1,1.09-1,3.39,3.39,0,0,1,1.43-.26,3,3,0,0,1,2.49,1.32A4.42,4.42,0,0,1,622.35,172.55Z" transform="translate(-410.04 -4.47)"/><path class="cls-2" d="M639.56,172.27a5.79,5.79,0,0,0-1.12-2.31,2.67,2.67,0,0,0-2.09-1,2.38,2.38,0,0,0-2.09.89,4.77,4.77,0,0,0-.81,2.4,3.81,3.81,0,0,1,.39-2.69,2.55,2.55,0,0,1,1.09-1,3.55,3.55,0,0,1,1.43-.26,3,3,0,0,1,2.49,1.32A4.44,4.44,0,0,1,639.56,172.27Z" transform="translate(-410.04 -4.47)"/><path class="cls-2" d="M628.2,143.62s.95,12.4-17.85,17.59a39.86,39.86,0,0,1-1.07,12.18s-6.09-8.78-3.23-19.16S623.43,135.52,628.2,143.62Z" transform="translate(-410.04 -4.47)"/><path class="cls-2" d="M626.72,143.62s-.35,12.4,18.45,17.59c0,0-.9,7.88.71,13.79,0,0,6.45-10.39,3.59-20.77S631.49,135.52,626.72,143.62Z" transform="translate(-410.04 -4.47)"/><path class="cls-3" d="M613.19,160.31a24.07,24.07,0,0,1-6.82-7.09c-.12.33-.22.67-.32,1-2.86,10.38,3.23,19.16,3.23,19.16a39.86,39.86,0,0,0,1.07-12.18C611.36,160.93,612.29,160.63,613.19,160.31Z" transform="translate(-410.04 -4.47)"/><path class="cls-12" d="M552.73,205.08c-5.05-2.75-3.67-16.06-3.67-16.06l-7.56.49V189l-.81.24-.8-.24v.48l-7.56-.49s1.37,13.31-3.67,16.06S493.79,209.21,497,240h87.39C587.6,209.21,557.78,207.84,552.73,205.08Z" transform="translate(-410.04 -4.47)"/><path class="cls-13" d="M531.27,201.65q9-1.35,18.1-2.78a40.41,40.41,0,0,1-.31-9.85l-7.56.49V189l-.81.24-.8-.24v.48l-7.56-.49S533.12,196.76,531.27,201.65Z" transform="translate(-410.04 -4.47)"/><path class="cls-14" d="M557.52,206.61a36.42,36.42,0,0,1-33.9.07c-10,2.69-29.23,8.27-26.62,33.27h87.39C587,214.73,567.43,209.28,557.52,206.61Z" transform="translate(-410.04 -4.47)"/><path class="cls-15" d="M578.1,217.16c-4,1.93-8.45,2.58-12.85,4q-9.32,2.89-18.71,5.58c-12.55,3.6-25.15,7-37.75,10.36L498,240h86.38C585.51,229.2,582.59,222.05,578.1,217.16Z" transform="translate(-410.04 -4.47)"/><path class="cls-16" d="M520.11,207.67c-10.37,3.13-25.44,10-23.11,32.28h35.61Z" transform="translate(-410.04 -4.47)"/><path class="cls-16" d="M561,207.6,555.35,240h29C586.74,217.46,571.41,210.69,561,207.6Z" transform="translate(-410.04 -4.47)"/><path class="cls-17" d="M529.48,240h3.13l-12.5-32.28a50.85,50.85,0,0,0-8.56,3.36Z" transform="translate(-410.04 -4.47)"/><path class="cls-17" d="M561,207.6,555.35,240H558l15-27.12A45.28,45.28,0,0,0,561,207.6Z" transform="translate(-410.04 -4.47)"/><path class="cls-13" d="M525.92,169.55c-1.49-4.62-5-3.55-5.34-3.44s-4,.58-3.36,5.39,3.44,7.45,6.07,6.69C526,177.76,527.41,174.19,525.92,169.55Z" transform="translate(-410.04 -4.47)"/><path class="cls-13" d="M555.61,169.55c1.48-4.62,5-3.55,5.34-3.44s4,.58,3.35,5.39-3.44,7.45-6.07,6.69C555.53,177.76,554.11,174.19,555.61,169.55Z" transform="translate(-410.04 -4.47)"/><path class="cls-12" d="M522.31,162.56c1.84-20.23,17.22-19.09,18.67-18.94,1.45-.15,16.82-1.29,18.66,18.94s-7.2,33.63-18.66,32.9C529.52,196.19,520.46,182.9,522.31,162.56Z" transform="translate(-410.04 -4.47)"/><path class="cls-13" d="M543.63,172.07a15.11,15.11,0,0,1,1,2.91,23,23,0,0,1,.57,3l0,.22-.11.11a31.52,31.52,0,0,1-2.59,2.16,28.28,28.28,0,0,1,2.06-2.67l-.09.33a20.43,20.43,0,0,1-.69-3A14.25,14.25,0,0,1,543.63,172.07Z" transform="translate(-410.04 -4.47)"/><path class="cls-11" d="M548.81,184.1c-3.66,3.56-9.86,3.36-14.55.19" transform="translate(-410.04 -4.47)"/><path class="cls-2" d="M555.48,165.22a11.94,11.94,0,0,0-4.83-2,5.05,5.05,0,0,0-2.38.33,9.67,9.67,0,0,0-1.2.54c-.4.21-.78.48-1.24.7a7.14,7.14,0,0,1,.78-1.26,5.21,5.21,0,0,1,1.13-1,4.55,4.55,0,0,1,3-.78,5.57,5.57,0,0,1,2.85,1.16A5.72,5.72,0,0,1,555.48,165.22Z" transform="translate(-410.04 -4.47)"/><path class="cls-2" d="M536.32,165.22a11.83,11.83,0,0,0-4.83-2,5,5,0,0,0-2.37.33,9.67,9.67,0,0,0-1.2.54c-.41.21-.78.48-1.24.7a7.72,7.72,0,0,1,.77-1.26,5.5,5.5,0,0,1,1.14-1,4.53,4.53,0,0,1,3-.78,6,6,0,0,1,4.7,3.45Z" transform="translate(-410.04 -4.47)"/><path class="cls-2" d="M535.72,172.55a5.9,5.9,0,0,0-1.12-2.32,2.7,2.7,0,0,0-2.09-1,2.38,2.38,0,0,0-2.09.88,4.81,4.81,0,0,0-.81,2.41,3.81,3.81,0,0,1,.39-2.69,2.49,2.49,0,0,1,1.09-1,3.39,3.39,0,0,1,1.43-.26,3,3,0,0,1,2.49,1.32A4.42,4.42,0,0,1,535.72,172.55Z" transform="translate(-410.04 -4.47)"/><path class="cls-2" d="M552.93,172.27a5.79,5.79,0,0,0-1.12-2.31,2.67,2.67,0,0,0-2.09-1,2.38,2.38,0,0,0-2.09.89,4.77,4.77,0,0,0-.81,2.4,3.81,3.81,0,0,1,.39-2.69,2.55,2.55,0,0,1,1.09-1,3.55,3.55,0,0,1,1.43-.26,3,3,0,0,1,2.49,1.32A4.44,4.44,0,0,1,552.93,172.27Z" transform="translate(-410.04 -4.47)"/><path class="cls-18" d="M513.34,165.59a10.6,10.6,0,0,0,2.73-2.92,8.53,8.53,0,0,0,.48-1.06c.09-.38.21-.77.28-1.17s.11-.8.12-1.22V158c0-.41-.07-.82-.1-1.24l0-.32a.47.47,0,0,1,0-.12v-.15l0-.63a22.85,22.85,0,0,1,.3-2.56,13,13,0,0,1,.68-2.53,6.11,6.11,0,0,1,.27-.58,4.52,4.52,0,0,1,.3-.54l.16-.24.23-.27.11-.13,0,0h0l0,0,.26-.24a9.24,9.24,0,0,1,1.46-1q0-.66,0-1.32a10.57,10.57,0,0,0-2.24,1.5l-.26.24-.06.06-.06.06,0,0-.12.13-.23.27-.22.35a4.64,4.64,0,0,0-.38.68,6.61,6.61,0,0,0-.29.68,14.86,14.86,0,0,0-.69,2.76,20.82,20.82,0,0,0-.24,2.69c0,.22,0,.44,0,.66v.17s0,.19,0,.2l0,.32c.05.41.09.83.14,1.24a8.47,8.47,0,0,1-.6,4.32,11.25,11.25,0,0,1-2.43,2.9,11.23,11.23,0,0,0-1.93,2.37,6.39,6.39,0,0,0-.51,1,5.57,5.57,0,0,0-.29.78l-.21.65.27-.63a9,9,0,0,1,.94-1.68A10.5,10.5,0,0,1,513.34,165.59Z" transform="translate(-410.04 -4.47)"/><path class="cls-4" d="M551.42,145.18s6.74.2,8.92,8.53-.19,9.92-.19,16.66c0,0,0,4.16-1,5.55l-1.38-13.68S548.44,157.28,551.42,145.18Z" transform="translate(-410.04 -4.47)"/><path class="cls-5" d="M539.25,134a10.92,10.92,0,0,0-3.61,0,7.48,7.48,0,0,0-2.51.92,8.6,8.6,0,0,0-2.12,1.82c-1.23,1.42-2.15,3-3.27,4.5a11.07,11.07,0,0,1-4.1,3.47,13.66,13.66,0,0,1-1.28.53c-.45.17-.89.34-1.36.57a11,11,0,0,0-2.53,1.65l-.26.24-.06.06-.06.06v0l0,0-.12.13-.23.27-.22.35a4.64,4.64,0,0,0-.38.68,6.61,6.61,0,0,0-.29.68,14.86,14.86,0,0,0-.69,2.76,20.82,20.82,0,0,0-.24,2.69c0,.22,0,.44,0,.66v.17s0,.19,0,.2l0,.32c.05.41.09.83.14,1.24a8.47,8.47,0,0,1-.6,4.32,11.25,11.25,0,0,1-2.43,2.9,11.23,11.23,0,0,0-1.93,2.37,6.39,6.39,0,0,0-.51,1,5.57,5.57,0,0,0-.29.78l-.21.65.27-.63a9,9,0,0,1,.94-1.68,10.5,10.5,0,0,1,2-2.17,10.6,10.6,0,0,0,2.73-2.92,8.53,8.53,0,0,0,.48-1.06c.09-.38.21-.77.28-1.17s.11-.8.12-1.22V158c0-.41-.07-.82-.1-1.24l0-.32a.47.47,0,0,1,0-.12v-.15l0-.63a22.85,22.85,0,0,1,.3-2.56,13,13,0,0,1,.68-2.53,6.11,6.11,0,0,1,.27-.58,4.52,4.52,0,0,1,.3-.54l.16-.24.23-.27.11-.13,0,0h0l0,0,.26-.24a9.71,9.71,0,0,1,1.68-1.14q-.42.27-.78.54l-.37.3-.14.12-.46.46c-2.15,2.31-1.9,8.13-1.87,8.28,1.58,9.13-4,7.34-5.75,13.89s7,10.79,4.95,13.09c-4,4.36-5.95-1.39-5.95-1.39-.79,3.37,2.78,8.33,7.14,7.73,4.13-.56,8.61-3.79,7.06-10.53l0,0,.46,1.1c.14.35.31.69.42,1.05l.33,1.07.21,1.09c0,.37.08.73.08,1.1a10,10,0,0,1-.08,1.1,5.83,5.83,0,0,1-.25,1.08,5.67,5.67,0,0,1-.41,1,7.08,7.08,0,0,1-1.31,1.82,8.29,8.29,0,0,1-1.8,1.42,10.57,10.57,0,0,1-2.13,1,10.27,10.27,0,0,0,2.27-.7,8.59,8.59,0,0,0,2-1.28,7.57,7.57,0,0,0,1.62-1.85,7.32,7.32,0,0,0,.56-1.12,7,7,0,0,0,.37-1.2,8.42,8.42,0,0,0,.18-1.24c0-.42,0-.84,0-1.26s-.1-.82-.16-1.23-.2-.81-.3-1.21-.26-.78-.4-1.17l-.39-1.09c-.06-.19-.14-.38-.19-.56l-.11-.5a5,5,0,0,1-.14-1,2.51,2.51,0,0,1,.58-1.68c.39-.52,1-1,1.59-1.63a10,10,0,0,0,.83-1,7.7,7.7,0,0,0,.68-1.13l.29-.6.2-.62c.06-.21.14-.42.19-.63l.11-.63.12-.63,0-.62.08-1.2.06-1.18a8.38,8.38,0,0,1,.09-1.15,18,18,0,0,1,.39-2.17c.11-.36.16-.74.3-1.07l.37-1,.35-.51.45-.51.5-.44c.19-.12.37-.26.57-.37l.61-.29.67-.22.69-.14c.24,0,.48-.06.72-.08l1.59-.18.79-.09c.26,0,.54-.12.81-.17.54-.14,1.09-.22,1.61-.4l1.55-.55.2-.1a12.23,12.23,0,0,0,9.51-8.62C553.36,142.76,548.27,134.65,539.25,134ZM527.8,171a6.77,6.77,0,0,1-1.19,1.73c-.48.55-1.09,1.06-1.65,1.8a5.06,5.06,0,0,0-.37.6,2.51,2.51,0,0,0-.28.68l-.11.36,0,.36a3.43,3.43,0,0,0,0,.71l0,.28c-1.08-4.61,1.93-4.33,3.94-7.22l-.07.23Z" transform="translate(-410.04 -4.47)"/><path class="cls-18" d="M525.89,162.18a24.14,24.14,0,0,1-5.18-14.85c-.19.13-.39.26-.56.39l-.37.3-.14.12-.46.46c-2.15,2.31-1.9,8.13-1.87,8.28,1.58,9.13-4,7.34-5.75,13.89s7,10.79,4.95,13.09c-4,4.36-5.95-1.39-5.95-1.39-.79,3.37,2.78,8.33,7.14,7.73,4.13-.56,8.61-3.79,7.06-10.53l0,0,.46,1.1c.14.35.31.69.42,1.05l.33,1.07.21,1.09c0,.37.08.73.08,1.1a10,10,0,0,1-.08,1.1,5.83,5.83,0,0,1-.25,1.08,5.67,5.67,0,0,1-.41,1,7.08,7.08,0,0,1-1.31,1.82,8.29,8.29,0,0,1-1.8,1.42,10.57,10.57,0,0,1-2.13,1,10.27,10.27,0,0,0,2.27-.7,8.59,8.59,0,0,0,2-1.28,7.57,7.57,0,0,0,1.62-1.85,7.32,7.32,0,0,0,.56-1.12,7,7,0,0,0,.37-1.2,8.42,8.42,0,0,0,.18-1.24c0-.42,0-.84,0-1.26s-.1-.82-.16-1.23-.2-.81-.3-1.21-.26-.78-.4-1.17l-.39-1.09c-.06-.19-.14-.38-.19-.56l-.11-.5a5,5,0,0,1-.14-1,2.51,2.51,0,0,1,.58-1.68c.39-.52,1-1,1.59-1.63a10,10,0,0,0,.83-1,7.7,7.7,0,0,0,.68-1.13l.29-.6.2-.62c.06-.21.14-.42.19-.63l.11-.63.12-.63,0-.62.07-1.17A31.75,31.75,0,0,1,525.89,162.18Zm2.14,8.3-.23.47a6.77,6.77,0,0,1-1.19,1.73c-.48.55-1.09,1.06-1.65,1.8a5.06,5.06,0,0,0-.37.6,2.51,2.51,0,0,0-.28.68l-.11.36,0,.36a3.43,3.43,0,0,0,0,.71l0,.28c-1.08-4.61,1.93-4.33,3.94-7.22Z" transform="translate(-410.04 -4.47)"/><path class="cls-6" d="M479.18,150.34s1.59,11.3,6.35,18.84c6.86,10.87-2,12.3-.2,19.83s15.47,13.89-.79,31.14c-10.65,11.29-23.41-10.71-23.41-10.71l-3.57-28.76Z" transform="translate(-410.04 -4.47)"/><path class="cls-19" d="M473.93,168.73c-1.72-1.29-3.39-2.61-5-4l-11.35,14.07,3.57,25.39a41.41,41.41,0,0,0,7.65,8.41c1.16-1.29,3.9,4.69,5.44,4.16,5.16-1.79,14.48-11.7,7.74-19.24C473.9,188.54,483.54,178.3,473.93,168.73Z" transform="translate(-410.04 -4.47)"/><path class="cls-20" d="M466,205.08c-5-2.75-3.68-16.06-3.68-16.06l-7.55.49V189l-.81.24-.81-.24v.48l-7.56-.49s1.38,13.31-3.67,16.06-34.87,4.13-31.66,34.87h87.39C500.88,209.21,471.06,207.84,466,205.08Z" transform="translate(-410.04 -4.47)"/><path class="cls-21" d="M444.55,201.65q9.06-1.35,18.1-2.78a40.41,40.41,0,0,1-.31-9.85l-7.55.49V189l-.81.24-.81-.24v.48l-7.56-.49S446.41,196.76,444.55,201.65Z" transform="translate(-410.04 -4.47)"/><path class="cls-2" d="M473.07,227.88a47.59,47.59,0,0,1,.61-20.47c-1.27-.37-2.47-.69-3.53-1-.48,5.55-1.13,11.19-3.22,16.2a27.2,27.2,0,0,1-2.9,5.24Z" transform="translate(-410.04 -4.47)"/><path class="cls-22" d="M482.26,210.3c-5,6.83-15.69,11.55-28.08,11.55s-23.09-4.72-28.08-11.55c-8.88,4.19-17.64,12.22-15.81,29.65h87.78C499.89,222.52,491.14,214.49,482.26,210.3Z" transform="translate(-410.04 -4.47)"/><path class="cls-23" d="M451.91,231.85c17.63,0,33.06-5.1,41.55-12.72a28.82,28.82,0,0,0-11.2-8.83c-5,6.83-15.69,11.55-28.08,11.55s-23.09-4.72-28.08-11.55c-4.85,2.29-9.66,5.73-12.73,11.21C422.23,227.79,436.19,231.85,451.91,231.85Z" transform="translate(-410.04 -4.47)"/><path class="cls-21" d="M439.2,169.55c-1.49-4.62-5-3.55-5.34-3.44s-4,.58-3.35,5.39,3.43,7.45,6.06,6.69C439.28,177.76,440.7,174.19,439.2,169.55Z" transform="translate(-410.04 -4.47)"/><path class="cls-21" d="M468.89,169.55c1.49-4.62,5-3.55,5.34-3.44s4,.58,3.36,5.39-3.44,7.45-6.07,6.69C468.81,177.76,467.4,174.19,468.89,169.55Z" transform="translate(-410.04 -4.47)"/><path class="cls-20" d="M435.59,162.56c1.85-20.23,17.22-19.09,18.67-18.94,1.45-.15,16.83-1.29,18.67,18.94s-7.21,33.63-18.67,32.9C442.8,196.19,433.74,182.9,435.59,162.56Z" transform="translate(-410.04 -4.47)"/><path class="cls-6" d="M443.18,146.27s1.89,15.37,17.16,18.35l-3.77-9.42S457.86,166.6,473,166c0,0,5.56,2.57,3.57,8.52A12.17,12.17,0,0,0,480,162.24c-2.08-7.74,2.78-8.23-5-19.64C468.19,132.54,445.86,131.4,443.18,146.27Z" transform="translate(-410.04 -4.47)"/><path class="cls-6" d="M447.45,143s-7.34-5.95-12.89.79-4.17,17.26-9.32,23.8-4.37,12.3,2,18.45-17.85,11.9-10.12,27.17,27,7.14,28.37-5,.59-14.68.59-14.68-8.13-6.34-9.52-16.46,1-15.07,5.36-18.64S450.23,151.73,447.45,143Z" transform="translate(-410.04 -4.47)"/><path class="cls-19" d="M420.67,206.07c-1.61-3.12-1.85-5.56-1.27-7.54-3.26,3.75-5.47,8.41-2.3,14.68,7.74,15.27,27,7.14,28.37-5,0-.27,0-.53.08-.79C439.47,212.27,426.64,217.6,420.67,206.07Z" transform="translate(-410.04 -4.47)"/><path class="cls-24" d="M456.91,172.67a15.06,15.06,0,0,1,1,2.9,21.86,21.86,0,0,1,.56,3l0,.21-.12.11a28.49,28.49,0,0,1-2.59,2.16,29.91,29.91,0,0,1,2.06-2.66l-.09.33a23.8,23.8,0,0,1-.69-3A15,15,0,0,1,456.91,172.67Z" transform="translate(-410.04 -4.47)"/><path class="cls-11" d="M462.1,184.69c-3.66,3.56-9.86,3.36-14.56.19" transform="translate(-410.04 -4.47)"/><path class="cls-2" d="M468.76,165.81a12,12,0,0,0-4.83-2,5,5,0,0,0-2.37.34,8.44,8.44,0,0,0-1.2.53c-.41.21-.78.49-1.24.7a7.22,7.22,0,0,1,.77-1.26,5.25,5.25,0,0,1,1.14-1,4.47,4.47,0,0,1,3-.78,5.54,5.54,0,0,1,2.86,1.15A5.92,5.92,0,0,1,468.76,165.81Z" transform="translate(-410.04 -4.47)"/><path class="cls-2" d="M449.61,165.81a12,12,0,0,0-4.83-2,5.06,5.06,0,0,0-2.38.34,9.57,9.57,0,0,0-1.2.53c-.4.21-.78.49-1.24.7a8,8,0,0,1,.78-1.26,5.44,5.44,0,0,1,1.13-1,4.51,4.51,0,0,1,3-.78,5.54,5.54,0,0,1,2.86,1.15A5.92,5.92,0,0,1,449.61,165.81Z" transform="translate(-410.04 -4.47)"/><path class="cls-2" d="M449,173.14a6,6,0,0,0-1.11-2.31,2.67,2.67,0,0,0-2.1-1,2.36,2.36,0,0,0-2.09.88,4.87,4.87,0,0,0-.81,2.4,3.81,3.81,0,0,1,.39-2.69,2.68,2.68,0,0,1,1.09-1,3.6,3.6,0,0,1,1.44-.26,3,3,0,0,1,2.48,1.32A4.37,4.37,0,0,1,449,173.14Z" transform="translate(-410.04 -4.47)"/><path class="cls-2" d="M466.21,172.86a6,6,0,0,0-1.11-2.31,2.67,2.67,0,0,0-2.1-1,2.39,2.39,0,0,0-2.09.88,4.87,4.87,0,0,0-.81,2.4,3.81,3.81,0,0,1,.39-2.69,2.59,2.59,0,0,1,1.09-1,3.44,3.44,0,0,1,1.44-.27,3,3,0,0,1,2.48,1.32A4.37,4.37,0,0,1,466.21,172.86Z" transform="translate(-410.04 -4.47)"/><path class="cls-12" d="M726.06,205.08c-5-2.75-3.67-16.06-3.67-16.06l-7.56.49V189l-.81.24-.8-.24v.48l-7.56-.49S707,202.33,702,205.08s-34.87,4.13-31.66,34.87h87.39C760.93,209.21,731.11,207.84,726.06,205.08Z" transform="translate(-410.04 -4.47)"/><path class="cls-13" d="M704.6,201.65q9.06-1.35,18.1-2.78a40.41,40.41,0,0,1-.31-9.85l-7.56.49V189l-.81.24-.8-.24v.48l-7.56-.49S706.45,196.76,704.6,201.65Z" transform="translate(-410.04 -4.47)"/><path class="cls-17" d="M727.63,204.85c-2.52-1.38-3.45-5.36-3.74-9a33.91,33.91,0,0,1-9.5,1.32,27.12,27.12,0,0,1-10.19-1.87c-.25,3.81-1.14,8.14-3.78,9.58-5.08,2.77-33.92,4.15-30.68,35.1h88C761,209,732.71,207.62,727.63,204.85Z" transform="translate(-410.04 -4.47)"/><path class="cls-16" d="M714,212a26.88,26.88,0,0,0,17.42-6,19.56,19.56,0,0,1-3.51-1.21c-2.52-1.38-3.45-5.36-3.75-9a33.86,33.86,0,0,1-9.5,1.32,27.06,27.06,0,0,1-10.18-1.87c-.25,3.81-1.14,8.14-3.79,9.58a22,22,0,0,1-4,1.33A26.93,26.93,0,0,0,714,212Z" transform="translate(-410.04 -4.47)"/><polyline class="cls-25" points="271.77 231.82 276.68 227.19 281.31 231.82"/><polyline class="cls-25" points="326.99 231.64 332.58 227.19 337.22 231.82"/><polyline class="cls-25" points="317.75 231.67 323.04 227.19 327.67 231.82"/><polyline class="cls-25" points="308.86 231.82 313.76 227.19 318.4 231.82"/><polyline class="cls-25" points="299.12 231.72 304.49 227.19 309.51 231.69"/><polyline class="cls-25" points="290.31 231.82 295.22 227.19 299.86 231.82"/><polyline class="cls-25" points="280.65 231.72 285.95 227.19 290.9 231.64"/><polyline class="cls-26" points="271.77 227.26 276.68 222.62 281.31 227.26"/><polyline class="cls-26" points="326.99 227.07 332.58 222.62 337.22 227.26"/><polyline class="cls-26" points="317.75 227.1 323.04 222.62 327.67 227.26"/><polyline class="cls-26" points="308.86 227.26 313.76 222.62 318.4 227.26"/><polyline class="cls-26" points="299.12 227.16 304.49 222.62 309.51 227.13"/><polyline class="cls-26" points="290.31 227.26 295.22 222.62 299.86 227.26"/><polyline class="cls-26" points="280.65 227.16 285.95 222.62 290.9 227.07"/><path class="cls-16" d="M683.3,228.83a62.43,62.43,0,0,0-2-16.56c-7.14,4.63-13.1,12.69-11.53,27.68h12.71A69.7,69.7,0,0,0,683.3,228.83Z" transform="translate(-410.04 -4.47)"/><path class="cls-16" d="M746.08,212A62.56,62.56,0,0,0,744,228.83a70.94,70.94,0,0,0,.84,11.12h12.89C759.31,224.69,753.25,216.62,746.08,212Z" transform="translate(-410.04 -4.47)"/><path class="cls-13" d="M699.25,169.55c-1.49-4.62-5-3.55-5.34-3.44s-4,.58-3.36,5.39,3.44,7.45,6.07,6.69C699.33,177.76,700.74,174.19,699.25,169.55Z" transform="translate(-410.04 -4.47)"/><path class="cls-13" d="M728.94,169.55c1.48-4.62,5-3.55,5.34-3.44s4,.58,3.35,5.39-3.44,7.45-6.07,6.69C728.86,177.76,727.44,174.19,728.94,169.55Z" transform="translate(-410.04 -4.47)"/><path class="cls-12" d="M695.64,162.56c1.84-20.23,17.22-19.09,18.67-18.94,1.45-.15,16.82-1.29,18.66,18.94s-7.2,33.63-18.66,32.9C702.85,196.19,693.79,182.9,695.64,162.56Z" transform="translate(-410.04 -4.47)"/><path class="cls-19" d="M694.9,148.35s-4.16,2.68-1.19,11.9l1.79,10.42L697,171s-.59-15.76,4.47-19.33S694.9,148.35,694.9,148.35Z" transform="translate(-410.04 -4.47)"/><path class="cls-6" d="M726.73,149.84s-19.93,11.6-30.64,2.38.6-14,5.06-13.39c0,0-1.49-5.05,4.46-5.65s4.76,5.36,13.69,5.36,13.38.59,12.49,8c0,0,4.46-2.68,6,2.38s-4.16,21.72-4.16,21.72l-.6,2.67h-1.49V159.06S725.84,160.85,726.73,149.84Z" transform="translate(-410.04 -4.47)"/><path class="cls-19" d="M737.74,149c-1.49-5.06-6-2.38-6-2.38.51-4.28-.75-6.29-3.62-7.23a27.77,27.77,0,0,1-4.45,12c1.87-.88,3-1.54,3-1.54-.89,11,4.76,9.22,4.76,9.22v14.28H733l.6-2.67S739.23,154,737.74,149Z" transform="translate(-410.04 -4.47)"/><path class="cls-13" d="M717,164.93a51.9,51.9,0,0,1,1,5.62c.25,1.89.45,3.78.57,5.68v.23l-.17.11c-.6.38-1.22.74-1.83,1.09s-1.25.71-1.89,1c.52-.49,1.08-.93,1.62-1.4s1.12-.88,1.69-1.31l-.16.34c-.3-1.88-.52-3.77-.69-5.66A51.9,51.9,0,0,1,717,164.93Z" transform="translate(-410.04 -4.47)"/><path class="cls-11" d="M722.15,182.31c-3.67,3.56-9.87,3.36-14.56.19" transform="translate(-410.04 -4.47)"/><path class="cls-2" d="M728.81,163.43a12.09,12.09,0,0,0-4.83-2,5.06,5.06,0,0,0-2.38.34,9.57,9.57,0,0,0-1.2.53c-.4.21-.78.49-1.24.7a8,8,0,0,1,.78-1.26,5.16,5.16,0,0,1,1.13-1,4.49,4.49,0,0,1,3-.78,5.47,5.47,0,0,1,2.85,1.15A5.79,5.79,0,0,1,728.81,163.43Z" transform="translate(-410.04 -4.47)"/><path class="cls-2" d="M709.65,163.43a12,12,0,0,0-4.83-2,5,5,0,0,0-2.37.34,9.57,9.57,0,0,0-1.2.53c-.41.21-.78.49-1.24.7a8,8,0,0,1,.78-1.26,5.16,5.16,0,0,1,1.13-1,4.48,4.48,0,0,1,3-.78,5.47,5.47,0,0,1,2.86,1.15A5.68,5.68,0,0,1,709.65,163.43Z" transform="translate(-410.04 -4.47)"/><path class="cls-27" d="M694.07,165.56l5.18,4,13,.41s3.35-4.7,6.14,0h13.4l4-3.78" transform="translate(-410.04 -4.47)"/><circle class="cls-28" cx="295.51" cy="165.49" r="6.7"/><circle class="cls-28" cx="315.05" cy="165.49" r="6.7"/><path class="cls-2" d="M709.05,170.76a5.86,5.86,0,0,0-1.12-2.31,2.63,2.63,0,0,0-2.09-1,2.35,2.35,0,0,0-2.09.88,4.77,4.77,0,0,0-.81,2.4,3.81,3.81,0,0,1,.39-2.69,2.62,2.62,0,0,1,1.09-1,3.55,3.55,0,0,1,1.43-.26,3,3,0,0,1,2.49,1.32A4.44,4.44,0,0,1,709.05,170.76Z" transform="translate(-410.04 -4.47)"/><path class="cls-2" d="M726.26,170.48a5.86,5.86,0,0,0-1.12-2.31,2.63,2.63,0,0,0-2.09-1,2.38,2.38,0,0,0-2.09.88,4.77,4.77,0,0,0-.81,2.4,3.81,3.81,0,0,1,.39-2.69,2.59,2.59,0,0,1,1.09-1,3.4,3.4,0,0,1,1.43-.27,3,3,0,0,1,2.49,1.32A4.44,4.44,0,0,1,726.26,170.48Z" transform="translate(-410.04 -4.47)"/><path class="cls-5" d="M791.83,195.16s-9.13,5.75-4.17,14.48,39.27,6.34,21.62-14.48C794.7,178,791.83,195.16,791.83,195.16Z" transform="translate(-410.04 -4.47)"/><path class="cls-5" d="M825.22,173s-4,4.76-3.18,9.52c1.14,6.85-9.32,15.86-20,12.89s.8-23,.8-23Z" transform="translate(-410.04 -4.47)"/><path class="cls-5" d="M775.17,173s4,4.76,3.17,9.52c-1.14,6.85,9.32,15.86,20,12.89s-.79-23-.79-23Z" transform="translate(-410.04 -4.47)"/><path class="cls-4" d="M802.39,187.93a30.2,30.2,0,0,0,14.28-3.08,15.24,15.24,0,0,0,5.34-4.71,15.77,15.77,0,0,1,3.21-7.19l-22.41-.6s-4.88,8.5-5.32,15.25A47.62,47.62,0,0,0,802.39,187.93Z" transform="translate(-410.04 -4.47)"/><path class="cls-4" d="M778.43,181.64a53.82,53.82,0,0,0,24,6.29h.52c-.3-6.79-5.33-15.57-5.33-15.57l-22.41.6S778.68,177.17,778.43,181.64Z" transform="translate(-410.04 -4.47)"/><path class="cls-12" d="M812.18,205.08c-5-2.75-3.67-16.06-3.67-16.06l-7.56.49V189l-.81.24-.81-.24v.48l-7.56-.49s1.38,13.31-3.67,16.06S752,209.21,755.26,240H845C848.24,209.21,817.22,207.84,812.18,205.08Z" transform="translate(-410.04 -4.47)"/><path class="cls-13" d="M790.71,201.65q9.06-1.35,18.1-2.78a40.15,40.15,0,0,1-.3-9.85l-7.56.49V189l-.81.24-.81-.24v.48l-7.56-.49S792.57,196.76,790.71,201.65Z" transform="translate(-410.04 -4.47)"/><path class="cls-22" d="M822.44,207.45c-4.42,4-10.94,6.78-18.38,7.49l-4,14.44-2.12-14.32c-8.06-.47-15.17-3.34-19.88-7.61-10.48,3.36-25.79,10.64-23.5,32.5H846C848.23,218.09,832.92,210.81,822.44,207.45Z" transform="translate(-410.04 -4.47)"/><path class="cls-29" d="M798.48,218.73l-.55-3.67c-8.06-.47-15.17-3.34-19.88-7.61a53.78,53.78,0,0,0-5.56,2.11C776.21,214.61,786.33,218.33,798.48,218.73Z" transform="translate(-410.04 -4.47)"/><path class="cls-29" d="M828.62,209.84a51.7,51.7,0,0,0-6.18-2.39c-4.42,4-10.94,6.78-18.38,7.49l-1,3.78C814.86,218.3,824.76,214.72,828.62,209.84Z" transform="translate(-410.04 -4.47)"/><path class="cls-29" d="M799.14,232.86a1.67,1.67,0,1,0,1.67-1.66A1.67,1.67,0,0,0,799.14,232.86Z" transform="translate(-410.04 -4.47)"/><path class="cls-13" d="M785.36,169.55c-1.48-4.62-5-3.55-5.34-3.44s-4,.58-3.35,5.39,3.44,7.45,6.07,6.69C785.44,177.76,786.86,174.19,785.36,169.55Z" transform="translate(-410.04 -4.47)"/><path class="cls-13" d="M815.05,169.55c1.49-4.62,5-3.55,5.34-3.44s4,.58,3.36,5.39-3.44,7.45-6.07,6.69C815,177.76,813.56,174.19,815.05,169.55Z" transform="translate(-410.04 -4.47)"/><path class="cls-12" d="M781.76,162.56c1.84-20.23,17.21-19.09,18.66-18.94,1.45-.15,16.83-1.29,18.67,18.94s-7.21,33.63-18.67,32.9C789,196.19,779.9,182.9,781.76,162.56Z" transform="translate(-410.04 -4.47)"/><path class="cls-4" d="M781.12,166.4s-1,26.58,14.67,29.55,25.39-10.11,24-30.94l-2-.19s-1.29,21-6,21.22,2.28-6.55-6.84-6.94-13.64-3.44-14.38,4.26c-.5,5.16-6.85-3.67-7.64-17.35S781.12,166.4,781.12,166.4Z" transform="translate(-410.04 -4.47)"/><path class="cls-5" d="M783.65,172.11a48,48,0,0,1-.75-6.1c-.79-13.69-1.78.39-1.78.39a54,54,0,0,0,.3,6.86Z" transform="translate(-410.04 -4.47)"/><path class="cls-5" d="M819.81,172.29a55.35,55.35,0,0,0,0-7.28l-2-.19s-.18,2.88-.64,6.51Q818.49,171.79,819.81,172.29Z" transform="translate(-410.04 -4.47)"/><path class="cls-13" d="M803.07,164.93a51.94,51.94,0,0,1,1.06,5.62c.25,1.89.45,3.78.56,5.68l0,.23-.17.11c-.61.38-1.22.74-1.84,1.09s-1.24.71-1.89,1c.53-.49,1.09-.93,1.63-1.4s1.11-.88,1.68-1.31l-.15.34c-.31-1.88-.53-3.77-.69-5.66A51.9,51.9,0,0,1,803.07,164.93Z" transform="translate(-410.04 -4.47)"/><path class="cls-2" d="M814.92,163.43a12,12,0,0,0-4.83-2,5,5,0,0,0-2.37.34,9,9,0,0,0-1.2.53c-.41.21-.78.49-1.24.7a7.88,7.88,0,0,1,.77-1.26,5.22,5.22,0,0,1,1.14-1,4.47,4.47,0,0,1,3-.78,5.51,5.51,0,0,1,2.86,1.15A5.68,5.68,0,0,1,814.92,163.43Z" transform="translate(-410.04 -4.47)"/><path class="cls-2" d="M795.77,163.43a12,12,0,0,0-4.83-2,5,5,0,0,0-2.37.34,8.44,8.44,0,0,0-1.2.53c-.41.21-.78.49-1.24.7a7.22,7.22,0,0,1,.77-1.26,5,5,0,0,1,1.14-1,4.47,4.47,0,0,1,3-.78,5.54,5.54,0,0,1,2.86,1.15A5.85,5.85,0,0,1,795.77,163.43Z" transform="translate(-410.04 -4.47)"/><path class="cls-2" d="M795.16,170.76a5.84,5.84,0,0,0-1.11-2.31,2.65,2.65,0,0,0-2.1-1,2.34,2.34,0,0,0-2.08.88,4.68,4.68,0,0,0-.81,2.4,3.81,3.81,0,0,1,.38-2.69,2.68,2.68,0,0,1,1.09-1,3.63,3.63,0,0,1,1.44-.26,3,3,0,0,1,2.48,1.32A4.37,4.37,0,0,1,795.16,170.76Z" transform="translate(-410.04 -4.47)"/><path class="cls-2" d="M812.37,170.48a5.71,5.71,0,0,0-1.11-2.31,2.64,2.64,0,0,0-2.1-1,2.37,2.37,0,0,0-2.08.88,4.68,4.68,0,0,0-.81,2.4,3.81,3.81,0,0,1,.38-2.69,2.59,2.59,0,0,1,1.09-1,3.47,3.47,0,0,1,1.44-.27,3,3,0,0,1,2.48,1.32A4.37,4.37,0,0,1,812.37,170.48Z" transform="translate(-410.04 -4.47)"/><path class="cls-11" d="M808.26,182.31c-3.66,3.56-9.86,3.36-14.56.19" transform="translate(-410.04 -4.47)"/><path class="cls-5" d="M800.7,146.57s-11.11-2-12.89,5,.79,16.26-7.34,14.87c0,0-5.9,1.19-2.13,10.51,0,0-11.16-10.71-4.62-18.44,5.34-6.31,3.18-20,16.27-22.21S800.7,144,800.7,146.57Z" transform="translate(-410.04 -4.47)"/><path class="cls-4" d="M800.7,146.57s-11.11-2-12.89,5,.79,16.26-7.34,14.87c0,0-5.9,1.19-2.13,10.51,0,0-11.16-10.71-4.62-18.44,5.34-6.31,3.18-20,16.27-22.21S800.7,144,800.7,146.57Z" transform="translate(-410.04 -4.47)"/><path class="cls-4" d="M799.69,146.57s11.1-2,12.89,5-.8,16.26,7.34,14.87c0,0,5.89,1.19,2.12,10.51,0,0,11.16-10.71,4.62-18.44-5.34-6.31-3.17-20-16.26-22.21S799.69,144,799.69,146.57Z" transform="translate(-410.04 -4.47)"/><path class="cls-4" d="M799.5,145a20.19,20.19,0,0,1,8.82,1.68,8.51,8.51,0,0,1,3.57,3,7,7,0,0,1,.9,2.21,14.79,14.79,0,0,1,.26,2.25c.2,3-.22,5.87,0,8.7a5.67,5.67,0,0,0,1.36,3.78,5.2,5.2,0,0,0,3.88,1.05h0a5.21,5.21,0,0,1,2.43,1,2.73,2.73,0,0,1,.83,1,2.66,2.66,0,0,1,.23,1.27,2.57,2.57,0,0,0-1.17-2.14,5,5,0,0,0-2.36-.77h0a5.6,5.6,0,0,1-4.31-1,4.44,4.44,0,0,1-1.27-1.93,10.1,10.1,0,0,1-.49-2.2c-.32-3-.08-5.87-.32-8.7a7.65,7.65,0,0,0-1.06-3.84,7.31,7.31,0,0,0-3.09-2.43,20.37,20.37,0,0,0-8.17-1.44Z" transform="translate(-410.04 -4.47)"/><path class="cls-30" d="M519.3,16.89h-100a8.91,8.91,0,0,0-8.91,8.91V93.21a8.91,8.91,0,0,0,8.91,8.91H437.6L464.92,129l-9-26.89H519.3a8.91,8.91,0,0,0,8.91-8.91V25.8A8.91,8.91,0,0,0,519.3,16.89Z" transform="translate(-410.04 -4.47)"/><path class="cls-11" d="M477.85,48l-.1,0a4.9,4.9,0,0,0-1.09.64,11.18,11.18,0,0,1,.66,4.08,11.67,11.67,0,0,1-2.51-3.54,5.11,5.11,0,0,1,2.54-2.16c.74-.31.82-1.12.48-1.94s-1-1.33-1.72-1h0a5.1,5.1,0,0,1-3.3.28,11.62,11.62,0,0,1-.73-4.29,11.09,11.09,0,0,1,2.41,3.35,4.37,4.37,0,0,0,1.21-.32l.11,0c-1.65-3.21-3.32-4.85-4.32-4.44a.68.68,0,0,0-.26.18c-1.21.92-2.53,5.26-9.12,8h0c-2.28,1-2.6,3.25-1.65,5.53a4.36,4.36,0,0,0,3.36,3,14.27,14.27,0,0,1,4.58,4.24,1.43,1.43,0,0,0,1.93.49c.82-.34,1.06-.86.75-1.61-.87-2.08-2.16-3.85-1.09-4.65,3.64-.52,6.06.35,7.32.39a1,1,0,0,0,.61,0c1-.42,1-2.77-.07-6.21" transform="translate(-410.04 -4.47)"/><path class="cls-11" d="M437.88,75.62V74.5l1-.2V67.6l-1-.19V66.28h4.45a4.17,4.17,0,0,1,1.84.37,2.8,2.8,0,0,1,1.2,1,2.89,2.89,0,0,1,.42,1.56,2.84,2.84,0,0,1-.42,1.56,2.72,2.72,0,0,1-1.2,1,4.17,4.17,0,0,1-1.84.37h-1.58V74.3l1,.2v1.12Zm2.87-4.83h1.58a1.43,1.43,0,0,0,1.58-1.52,1.58,1.58,0,0,0-.4-1.11,1.53,1.53,0,0,0-1.18-.44h-1.58Z" transform="translate(-410.04 -4.47)"/><path class="cls-11" d="M446.7,75.62V74.5l.9-.2V70l-1-.19V68.68h2.74l.07.86,0,.15a2.13,2.13,0,0,1,.63-.85,1.48,1.48,0,0,1,.91-.29l.36,0,.35.07-.19,1.73-.94,0a1.07,1.07,0,0,0-.64.13,1.53,1.53,0,0,0-.44.44v3.4l.9.2v1.12Z" transform="translate(-410.04 -4.47)"/><path class="cls-11" d="M455.55,75.75a3.31,3.31,0,0,1-1.76-.45,3,3,0,0,1-1.13-1.24,4.18,4.18,0,0,1-.39-1.84v-.14a4.13,4.13,0,0,1,.39-1.83A2.91,2.91,0,0,1,453.79,69a3.65,3.65,0,0,1,3.51,0,3,3,0,0,1,1.13,1.25,4.1,4.1,0,0,1,.39,1.83v.14a4.18,4.18,0,0,1-.39,1.84,3,3,0,0,1-1.13,1.24A3.25,3.25,0,0,1,455.55,75.75Zm0-1.43a1.17,1.17,0,0,0,.8-.27,1.49,1.49,0,0,0,.45-.73,3.66,3.66,0,0,0,.15-1.1v-.14A3.52,3.52,0,0,0,456.8,71a1.47,1.47,0,0,0-.46-.74,1.16,1.16,0,0,0-.8-.27,1.19,1.19,0,0,0-.8.27,1.46,1.46,0,0,0-.45.74,3.52,3.52,0,0,0-.15,1.08v.14a3.61,3.61,0,0,0,.15,1.1,1.46,1.46,0,0,0,.45.74A1.25,1.25,0,0,0,455.55,74.32Z" transform="translate(-410.04 -4.47)"/><path class="cls-11" d="M459.74,78.29V77.16l.9-.19V70l-1-.19V68.68h2.72l.09.81a2.27,2.27,0,0,1,.75-.7,2.09,2.09,0,0,1,1-.24,2.28,2.28,0,0,1,1.44.46,2.79,2.79,0,0,1,.91,1.28,5.12,5.12,0,0,1,.32,1.92v.13a4.51,4.51,0,0,1-.32,1.79,2.71,2.71,0,0,1-.91,1.2,2.46,2.46,0,0,1-1.45.42,2.17,2.17,0,0,1-1-.2,1.89,1.89,0,0,1-.73-.59v2l.9.19v1.13Zm3.92-4a1.14,1.14,0,0,0,1-.54,2.79,2.79,0,0,0,.32-1.44v-.13a4,4,0,0,0-.15-1.16,1.77,1.77,0,0,0-.45-.77,1.12,1.12,0,0,0-.78-.27,1.27,1.27,0,0,0-.68.17,1.21,1.21,0,0,0-.46.49v3a1.11,1.11,0,0,0,.46.45A1.53,1.53,0,0,0,463.66,74.32Z" transform="translate(-410.04 -4.47)"/><path class="cls-11" d="M471.17,75.75a3.33,3.33,0,0,1-1.77-.45,3,3,0,0,1-1.13-1.24,4.18,4.18,0,0,1-.39-1.84v-.14a4.13,4.13,0,0,1,.39-1.83A3,3,0,0,1,469.4,69a3.28,3.28,0,0,1,1.75-.45,3.33,3.33,0,0,1,1.77.45A3,3,0,0,1,474,70.25a4.1,4.1,0,0,1,.39,1.83v.14a4.18,4.18,0,0,1-.39,1.84,3,3,0,0,1-1.12,1.24A3.28,3.28,0,0,1,471.17,75.75Zm0-1.43a1.15,1.15,0,0,0,.79-.27,1.51,1.51,0,0,0,.46-.73,4,4,0,0,0,.14-1.1v-.14a3.88,3.88,0,0,0-.14-1.08,1.54,1.54,0,0,0-.46-.74,1.2,1.2,0,0,0-.81-.27,1.17,1.17,0,0,0-.79.27,1.54,1.54,0,0,0-.46.74,3.52,3.52,0,0,0-.15,1.08v.14a3.61,3.61,0,0,0,.15,1.1,1.54,1.54,0,0,0,.46.74A1.25,1.25,0,0,0,471.17,74.32Z" transform="translate(-410.04 -4.47)"/><path class="cls-11" d="M478.37,75.75a7.25,7.25,0,0,1-1.44-.14,6.31,6.31,0,0,1-1.29-.43l0-2h1.3l.25,1a2.48,2.48,0,0,0,.48.17,2.12,2.12,0,0,0,.59.07,1.43,1.43,0,0,0,.89-.21.63.63,0,0,0,.26-.51.64.64,0,0,0-.28-.51,2.66,2.66,0,0,0-1.08-.39,3.91,3.91,0,0,1-1.82-.79,1.79,1.79,0,0,1-.58-1.38,1.94,1.94,0,0,1,.29-1.06,2,2,0,0,1,.89-.76,3.58,3.58,0,0,1,1.54-.29,6.34,6.34,0,0,1,1.43.15,4.15,4.15,0,0,1,1.1.4V71H479.6l-.2-.91a1.31,1.31,0,0,0-.41-.2,2.09,2.09,0,0,0-.53-.06,1.22,1.22,0,0,0-.75.2.6.6,0,0,0-.27.51.56.56,0,0,0,.1.33.79.79,0,0,0,.36.29,4.07,4.07,0,0,0,.81.26,4.62,4.62,0,0,1,1.88.79,1.68,1.68,0,0,1,.59,1.37,2,2,0,0,1-.71,1.57A3.19,3.19,0,0,1,478.37,75.75Z" transform="translate(-410.04 -4.47)"/><path class="cls-11" d="M485.48,75.75a3.31,3.31,0,0,1-1.74-.44,3,3,0,0,1-1.15-1.21,3.67,3.67,0,0,1-.4-1.75v-.26a4.1,4.1,0,0,1,.38-1.83A3.11,3.11,0,0,1,483.66,69a2.93,2.93,0,0,1,1.66-.45,3.08,3.08,0,0,1,1.58.37,2.48,2.48,0,0,1,1,1.07,4,4,0,0,1,.33,1.7v1h-4.08v0a2.11,2.11,0,0,0,.22.82,1.43,1.43,0,0,0,.54.55,1.59,1.59,0,0,0,.84.21,3.61,3.61,0,0,0,1.83-.52l.51,1.15a3.85,3.85,0,0,1-1.09.58A4.54,4.54,0,0,1,485.48,75.75Zm-1.34-4.28h2.32V71.3a2.29,2.29,0,0,0-.11-.73,1,1,0,0,0-.36-.47,1.15,1.15,0,0,0-.64-.17,1,1,0,0,0-.63.2,1.32,1.32,0,0,0-.4.54,2.8,2.8,0,0,0-.2.77Z" transform="translate(-410.04 -4.47)"/><path class="cls-11" d="M489.14,75.62V74.5l.9-.2V70l-1-.19V68.68h2.74l.08.91a2.35,2.35,0,0,1,.83-.77,2.46,2.46,0,0,1,1.17-.27,2.19,2.19,0,0,1,1.14.29,1.82,1.82,0,0,1,.72.9,2.35,2.35,0,0,1,.83-.88,2.27,2.27,0,0,1,1.21-.31,2,2,0,0,1,1.62.7,3.24,3.24,0,0,1,.59,2.13V74.3l.91.2v1.12h-3.59V74.5l.81-.2V71.37a1.69,1.69,0,0,0-.26-1.07.88.88,0,0,0-.73-.29,1.15,1.15,0,0,0-.74.24,1.41,1.41,0,0,0-.43.65v3.4l.75.2v1.12h-3.38V74.5l.76-.2V71.37a1.7,1.7,0,0,0-.25-1.06.93.93,0,0,0-.75-.3,1.38,1.38,0,0,0-.69.16,1.22,1.22,0,0,0-.47.46V74.3l.81.2v1.12Z" transform="translate(-410.04 -4.47)"/><path class="cls-31" d="M714.9,14.19H643a23.4,23.4,0,0,0-23.41,23.4V86.38A23.41,23.41,0,0,0,643,109.78h27.35l-19.88,24.43,43.44-24.43h21a23.4,23.4,0,0,0,23.4-23.4V37.59A23.4,23.4,0,0,0,714.9,14.19Z" transform="translate(-410.04 -4.47)"/><path class="cls-11" d="M687.75,52.4a1.83,1.83,0,0,0-1-1.38,1.59,1.59,0,0,0,.3-.61,1.53,1.53,0,0,0-1-1.69,4.56,4.56,0,0,0-4.11.08c-1.19-.22-1.92-.93-1.85-1.9.17-2.13.84-2.68.5-4.41-.21-1.08-.87-2.39-1.86-2.52-.81-.1-1.06.78-1.11,1.84a13.8,13.8,0,0,1-1.21,4.37l-.2.22a6.92,6.92,0,0,0-1.93,5.45v5.43c.19,1.43,8,2.68,9.08,2.53s3.22-.63,3.5-2a1,1,0,0,0-.1-.87A1.77,1.77,0,0,0,687,54.1a1.81,1.81,0,0,0,.74-1.7" transform="translate(-410.04 -4.47)"/><path class="cls-11" d="M673,58.08a.65.65,0,0,1-.51.61l-3.7.69a.56.56,0,0,1-.61-.41,19.62,19.62,0,0,1,0-9.48.69.69,0,0,1,.64-.5h3.7a.5.5,0,0,1,.5.5Z" transform="translate(-410.04 -4.47)"/><path class="cls-11" d="M651.82,76.34V75.22l1-.21V68.35l-1-.22V67h4.09a4.15,4.15,0,0,1,2.21.59,4,4,0,0,1,1.49,1.62,5.09,5.09,0,0,1,.54,2.38v.17a5.17,5.17,0,0,1-.53,2.37,4,4,0,0,1-3.68,2.21Zm2.88-1.43h1.14a2.13,2.13,0,0,0,1.32-.4,2.62,2.62,0,0,0,.82-1.12,4.39,4.39,0,0,0,.29-1.63v-.18A4.35,4.35,0,0,0,658,70a2.53,2.53,0,0,0-.82-1.11,2.13,2.13,0,0,0-1.32-.4H654.7Z" transform="translate(-410.04 -4.47)"/><path class="cls-11" d="M664.46,76.48a3.41,3.41,0,0,1-1.74-.44,3,3,0,0,1-1.15-1.21,3.71,3.71,0,0,1-.4-1.76v-.26a4.16,4.16,0,0,1,.38-1.83,3,3,0,0,1,1.09-1.25,2.94,2.94,0,0,1,1.66-.46,3.11,3.11,0,0,1,1.58.38,2.37,2.37,0,0,1,1,1.07,3.92,3.92,0,0,1,.33,1.69v1h-4.08v0a2.11,2.11,0,0,0,.22.81,1.45,1.45,0,0,0,.54.56,1.68,1.68,0,0,0,.84.2,3.32,3.32,0,0,0,1-.13,3.75,3.75,0,0,0,.87-.39l.51,1.16a3.61,3.61,0,0,1-1.09.57A4.53,4.53,0,0,1,664.46,76.48Zm-1.34-4.29h2.32V72a2.2,2.2,0,0,0-.11-.73,1,1,0,0,0-.36-.47,1.15,1.15,0,0,0-.64-.17,1,1,0,0,0-.63.19,1.3,1.3,0,0,0-.4.54,2.89,2.89,0,0,0-.2.77Z" transform="translate(-410.04 -4.47)"/><path class="cls-11" d="M671.45,76.48a3.23,3.23,0,0,1-1.73-.45,3,3,0,0,1-1.12-1.24,4,4,0,0,1-.39-1.81v-.2a3.89,3.89,0,0,1,.4-1.81,3,3,0,0,1,1.12-1.24,3.08,3.08,0,0,1,1.71-.46,4.05,4.05,0,0,1,2.71,1v2h-1.41L672.48,71a1.53,1.53,0,0,0-.39-.25,1.5,1.5,0,0,0-1.34.16,1.57,1.57,0,0,0-.5.73,3.53,3.53,0,0,0-.17,1.15V73a3.25,3.25,0,0,0,.19,1.17,1.41,1.41,0,0,0,.5.67,1.14,1.14,0,0,0,.69.22,1.2,1.2,0,0,0,.8-.26,1.38,1.38,0,0,0,.41-.73h1.6l0,0a3.46,3.46,0,0,1-.44,1.28,2.09,2.09,0,0,1-.91.83A3.41,3.41,0,0,1,671.45,76.48Z" transform="translate(-410.04 -4.47)"/><path class="cls-11" d="M675.2,76.34V75.22l.91-.19V70.72l-1-.19V69.4H678V75l.9.19v1.12Zm.84-8.41V66.34H678v1.59Z" transform="translate(-410.04 -4.47)"/><path class="cls-11" d="M682.3,76.48a2.32,2.32,0,0,1-1.42-.43,2.63,2.63,0,0,1-.91-1.19,4.71,4.71,0,0,1-.31-1.8v-.13A5.37,5.37,0,0,1,680,71a2.93,2.93,0,0,1,.91-1.28,2.25,2.25,0,0,1,1.41-.46,2.11,2.11,0,0,1,1,.23,2.21,2.21,0,0,1,.75.65V67.66l-1-.2V66.34h2.87V75l.9.19v1.12h-2.52l-.14-.84a2.35,2.35,0,0,1-.78.73A2.25,2.25,0,0,1,682.3,76.48Zm.56-1.46a1.25,1.25,0,0,0,.68-.17,1.43,1.43,0,0,0,.5-.48V71.43a1.45,1.45,0,0,0-.49-.52,1.28,1.28,0,0,0-.68-.18,1.07,1.07,0,0,0-.77.28,1.6,1.6,0,0,0-.43.77,4,4,0,0,0-.14,1.15v.13a2.8,2.8,0,0,0,.31,1.44A1.07,1.07,0,0,0,682.86,75Z" transform="translate(-410.04 -4.47)"/><path class="cls-11" d="M687.48,76.34V75.22l.9-.19V70.72l-1-.19V69.4h2.88V75l.9.19v1.12Zm.84-8.41V66.34h1.94v1.59Z" transform="translate(-410.04 -4.47)"/><path class="cls-11" d="M691.84,76.34V75.22l.9-.19V70.72l-1-.19V69.4h2.74l.08.92a2.3,2.3,0,0,1,2-1,2.08,2.08,0,0,1,1.14.3,1.79,1.79,0,0,1,.72.89,2.39,2.39,0,0,1,.83-.87,2.3,2.3,0,0,1,1.21-.32,2,2,0,0,1,1.62.7,3.28,3.28,0,0,1,.59,2.13V75l.91.19v1.12H700V75.22l.81-.19V72.1a1.74,1.74,0,0,0-.25-1.07.92.92,0,0,0-.74-.3,1.11,1.11,0,0,0-.74.25,1.36,1.36,0,0,0-.43.65V75l.75.19v1.12H696V75.22l.76-.19V72.1a1.68,1.68,0,0,0-.25-1.06.91.91,0,0,0-.75-.31,1.38,1.38,0,0,0-.69.16,1.29,1.29,0,0,0-.47.46V75l.81.19v1.12Z" transform="translate(-410.04 -4.47)"/><path class="cls-32" d="M627.78,44.69c-5.44-27.81-36-45.24-68.24-38.93s-54,34-48.55,61.76c3.74,19.18,19.44,33.4,39.39,38.32l-.86,16.92,18.93-15.08a69.28,69.28,0,0,0,10.78-1.23C611.48,100.15,633.21,72.5,627.78,44.69Z" transform="translate(-410.04 -4.47)"/><path class="cls-11" d="M580.41,56.13a6.68,6.68,0,0,0,1.51-3.75,6,6,0,0,0-4-5.29c0,.12,0,.23,0,.35,0,4.44-3.83,8.16-8.9,9a8.29,8.29,0,0,0,5.42,1.9c3.07,0,4.62,2.17,6.76,2.17-.64-.73-1.77-3.12-.82-4.4" transform="translate(-410.04 -4.47)"/><path class="cls-11" d="M566.78,53.68A12.11,12.11,0,0,0,561,55.34a5,5,0,0,0-.69-3.92,7.25,7.25,0,0,1-1.68-4c0-3.43,3.67-6.23,8.19-6.23S575,44,575,47.44s-3.67,6.24-8.19,6.24m9.93-6.24c0-4.4-4.45-8-9.93-8s-9.93,3.57-9.93,8a8.93,8.93,0,0,0,2,5c1.25,1.7-.25,4.89-1.1,5.85,2.85,0,4.93-2.89,9-2.89,5.48,0,9.93-3.56,9.93-8" transform="translate(-410.04 -4.47)"/><path class="cls-11" d="M562.92,46.63a1.18,1.18,0,1,0,1.19,1.18,1.19,1.19,0,0,0-1.19-1.18" transform="translate(-410.04 -4.47)"/><path class="cls-11" d="M566.77,46.63A1.18,1.18,0,1,0,568,47.81a1.18,1.18,0,0,0-1.18-1.18" transform="translate(-410.04 -4.47)"/><path class="cls-11" d="M570.61,46.63a1.18,1.18,0,1,0,1.18,1.18,1.18,1.18,0,0,0-1.18-1.18" transform="translate(-410.04 -4.47)"/><path class="cls-11" d="M542.13,76.2V75.07l1-.21V68.2l-1-.21V66.86h4.09a4.14,4.14,0,0,1,2.21.58,4,4,0,0,1,1.49,1.63,5,5,0,0,1,.54,2.37v.18a5.16,5.16,0,0,1-.53,2.36,4,4,0,0,1-3.68,2.22ZM545,74.77h1.14a2.14,2.14,0,0,0,1.32-.41,2.56,2.56,0,0,0,.82-1.12,4.37,4.37,0,0,0,.29-1.62v-.18a4.4,4.4,0,0,0-.29-1.64,2.53,2.53,0,0,0-.82-1.11,2.2,2.2,0,0,0-1.32-.4H545Z" transform="translate(-410.04 -4.47)"/><path class="cls-11" d="M554.77,76.33a3.41,3.41,0,0,1-1.74-.44,3,3,0,0,1-1.15-1.21,3.7,3.7,0,0,1-.4-1.75v-.26a4.1,4.1,0,0,1,.38-1.83A3,3,0,0,1,553,69.58a2.85,2.85,0,0,1,1.66-.45,3.08,3.08,0,0,1,1.58.37,2.43,2.43,0,0,1,1,1.07,4,4,0,0,1,.33,1.69v1h-4.08v0a2,2,0,0,0,.22.81,1.39,1.39,0,0,0,.54.56,1.58,1.58,0,0,0,.84.2,3.32,3.32,0,0,0,1-.13,3.06,3.06,0,0,0,.87-.39l.51,1.16a3.61,3.61,0,0,1-1.09.57A4.28,4.28,0,0,1,554.77,76.33Zm-1.34-4.28h2.32v-.17a2.24,2.24,0,0,0-.11-.73,1,1,0,0,0-.36-.47,1.15,1.15,0,0,0-.64-.17,1,1,0,0,0-.63.2,1.35,1.35,0,0,0-.4.53,3,3,0,0,0-.2.77Z" transform="translate(-410.04 -4.47)"/><path class="cls-11" d="M562.56,76.33a2.21,2.21,0,0,1-1.1-.25,2.15,2.15,0,0,1-.76-.74l-.14.86H559V67.51l-1-.19V66.19h2.86V70a2.16,2.16,0,0,1,.74-.64,2.49,2.49,0,0,1,2.45.23,2.88,2.88,0,0,1,.9,1.27,5.62,5.62,0,0,1,.31,1.93v.14a4.91,4.91,0,0,1-.31,1.8,2.68,2.68,0,0,1-.9,1.19A2.43,2.43,0,0,1,562.56,76.33ZM562,74.88a1.15,1.15,0,0,0,1-.51,2.89,2.89,0,0,0,.31-1.45v-.14a4.46,4.46,0,0,0-.14-1.17,1.57,1.57,0,0,0-.43-.76,1.07,1.07,0,0,0-.76-.27,1.29,1.29,0,0,0-.72.2,1.33,1.33,0,0,0-.48.54v2.9a1.35,1.35,0,0,0,.49.49A1.41,1.41,0,0,0,562,74.88Z" transform="translate(-410.04 -4.47)"/><path class="cls-11" d="M568.53,76.33a2.37,2.37,0,0,1-1.65-.55,2,2,0,0,1-.61-1.51,1.9,1.9,0,0,1,.36-1.15,2.38,2.38,0,0,1,1-.78,4.59,4.59,0,0,1,1.72-.28h.92v-.51a1.13,1.13,0,0,0-.3-.82,1.15,1.15,0,0,0-.87-.31,1.8,1.8,0,0,0-.54.08,1.63,1.63,0,0,0-.44.21l-.14.91h-1.35l0-1.8a5.89,5.89,0,0,1,1.18-.5,4.88,4.88,0,0,1,1.42-.19,3.36,3.36,0,0,1,2.15.63,2.16,2.16,0,0,1,.79,1.8V74.7a2.13,2.13,0,0,0,0,.27l.73.1V76.2h-2.32a3.54,3.54,0,0,1-.14-.39,2.75,2.75,0,0,1-.11-.41,2.66,2.66,0,0,1-.78.68A2.13,2.13,0,0,1,568.53,76.33ZM569,75a1.59,1.59,0,0,0,.74-.18,1.34,1.34,0,0,0,.55-.47V73.21h-.93a1.34,1.34,0,0,0-.93.28.88.88,0,0,0-.32.68.69.69,0,0,0,.24.57A.92.92,0,0,0,569,75Z" transform="translate(-410.04 -4.47)"/><path class="cls-11" d="M576,76.33a2,2,0,0,1-1.49-.53,2.34,2.34,0,0,1-.52-1.69V70.57h-1V69.26h1v-1.7h1.86v1.7h1.28v1.31H575.8v3.54a.81.81,0,0,0,.17.57.63.63,0,0,0,.47.18l.33,0,.31,0,.16,1.35-.62.14A5.16,5.16,0,0,1,576,76.33Z" transform="translate(-410.04 -4.47)"/><path class="cls-11" d="M581.38,76.33a3.41,3.41,0,0,1-1.74-.44,3,3,0,0,1-1.15-1.21,3.7,3.7,0,0,1-.41-1.75v-.26a4.1,4.1,0,0,1,.39-1.83,3,3,0,0,1,1.09-1.26,2.85,2.85,0,0,1,1.66-.45,3.1,3.1,0,0,1,1.58.37,2.43,2.43,0,0,1,1,1.07,4,4,0,0,1,.33,1.69v1H580v0a2,2,0,0,0,.22.81,1.39,1.39,0,0,0,.54.56,1.58,1.58,0,0,0,.84.2,3.32,3.32,0,0,0,1-.13,3.06,3.06,0,0,0,.87-.39l.51,1.16a3.61,3.61,0,0,1-1.09.57A4.28,4.28,0,0,1,581.38,76.33ZM580,72.05h2.32v-.17a2.24,2.24,0,0,0-.11-.73,1,1,0,0,0-.36-.47,1.15,1.15,0,0,0-.64-.17,1,1,0,0,0-.63.2,1.27,1.27,0,0,0-.4.53,3,3,0,0,0-.2.77Z" transform="translate(-410.04 -4.47)"/><path class="cls-11" d="M585,76.2V75.07l.9-.19v-4.3l-1-.2V69.26h2.74l.07.91a2.3,2.3,0,0,1,2-1,2.19,2.19,0,0,1,1.14.29,1.84,1.84,0,0,1,.72.89,2.39,2.39,0,0,1,.83-.87,2.25,2.25,0,0,1,1.21-.31,2,2,0,0,1,1.62.7,3.24,3.24,0,0,1,.59,2.13v2.92l.9.19V76.2h-3.58V75.07l.81-.19V72a1.69,1.69,0,0,0-.26-1.07.9.9,0,0,0-.73-.3,1.16,1.16,0,0,0-.74.25,1.37,1.37,0,0,0-.44.65v3.4l.76.19V76.2h-3.38V75.07l.76-.19V72a1.7,1.7,0,0,0-.26-1.06.9.9,0,0,0-.74-.31,1.46,1.46,0,0,0-.69.16,1.25,1.25,0,0,0-.47.47v3.67l.8.19V76.2Z" transform="translate(-410.04 -4.47)"/><path class="cls-33" d="M795.66,131.16s9-7.28,8-18.7a29.68,29.68,0,0,1-8.85,1.53,67.26,67.26,0,0,1-42.11-12.13C743.94,95.75,737,88,732.94,78c-7.81-19.4-1.53-40.33,13.43-53.84,22-19.86,56-21.13,79.36-2.91A51.84,51.84,0,0,1,845.8,62.79c0,9.89-1.93,29.35-16,46.38C812.35,130.25,795.66,131.16,795.66,131.16Z" transform="translate(-410.04 -4.47)"/><path class="cls-11" d="M788,55.06l-4.7-3.36.81-3.18,3.6,3.56L790.81,45,794,48.68Zm8.28-12.78c-1.75-.09-6.52-.24-8.63-2.34-2.11,2.1-6.87,2.25-8.63,2.34-2.31,11,5.72,17.09,8.63,18,2.92-.93,10.94-7,8.63-18" transform="translate(-410.04 -4.47)"/><path class="cls-11" d="M756.19,76.32V75.19l1-.19V68.3l-1-.19V67h4.43a4.71,4.71,0,0,1,1.85.33,2.52,2.52,0,0,1,1.59,2.45,2.63,2.63,0,0,1-.41,1.47,2.83,2.83,0,0,1-1.14,1,3.78,3.78,0,0,1-1.68.38h-1.77V75l1,.19v1.13Zm2.87-5.13h1.53a1.82,1.82,0,0,0,1.21-.35,1.27,1.27,0,0,0,.4-1,1.36,1.36,0,0,0-.4-1,1.61,1.61,0,0,0-1.18-.39h-1.56Zm3.14,5.13-1.57-4,1.69-.41L763.68,75l.79.18v1.13Z" transform="translate(-410.04 -4.47)"/><path class="cls-11" d="M768.73,76.45A3.26,3.26,0,0,1,767,76a3,3,0,0,1-1.16-1.21,3.7,3.7,0,0,1-.4-1.75v-.26a4.24,4.24,0,0,1,.38-1.83,3.11,3.11,0,0,1,1.09-1.26,2.85,2.85,0,0,1,1.66-.45,3.08,3.08,0,0,1,1.58.37,2.42,2.42,0,0,1,1,1.07,4,4,0,0,1,.33,1.69v1h-4.08v0a1.87,1.87,0,0,0,.23.81,1.3,1.3,0,0,0,.53.56A1.59,1.59,0,0,0,769,75a3.61,3.61,0,0,0,1.83-.52l.51,1.15a3.67,3.67,0,0,1-1.08.57A4.32,4.32,0,0,1,768.73,76.45Zm-1.35-4.28h2.32V72a2.29,2.29,0,0,0-.11-.73,1,1,0,0,0-.36-.47,1.15,1.15,0,0,0-.64-.17,1,1,0,0,0-.63.2,1.35,1.35,0,0,0-.4.53,2.64,2.64,0,0,0-.19.77Z" transform="translate(-410.04 -4.47)"/><path class="cls-11" d="M774.77,76.45a2.32,2.32,0,0,1-1.64-.55,1.94,1.94,0,0,1-.61-1.51,1.9,1.9,0,0,1,.36-1.15,2.27,2.27,0,0,1,1-.78,4.5,4.5,0,0,1,1.71-.28h.92v-.51a1.17,1.17,0,0,0-.29-.82,1.19,1.19,0,0,0-.88-.31,1.8,1.8,0,0,0-.54.08,1.56,1.56,0,0,0-.43.21l-.15.91h-1.35l0-1.8a6,6,0,0,1,1.18-.5,4.79,4.79,0,0,1,1.42-.19,3.33,3.33,0,0,1,2.14.63,2.17,2.17,0,0,1,.79,1.81v2.86a2.72,2.72,0,0,0,0,.28,2.11,2.11,0,0,0,0,.26l.72.1v1.13h-2.32c-.05-.12-.09-.25-.14-.39a1.89,1.89,0,0,1-.1-.41,2.7,2.7,0,0,1-.79.68A2.1,2.1,0,0,1,774.77,76.45Zm.5-1.38a1.59,1.59,0,0,0,.74-.18,1.34,1.34,0,0,0,.55-.47V73.33h-.92a1.39,1.39,0,0,0-.94.28.87.87,0,0,0-.31.68.69.69,0,0,0,.23.57A.94.94,0,0,0,775.27,75.07Z" transform="translate(-410.04 -4.47)"/><path class="cls-11" d="M779.87,76.32V75.19l.9-.19V67.63l-1-.19V66.31h2.87V75l.91.19v1.13Z" transform="translate(-410.04 -4.47)"/><path class="cls-11" d="M784.23,76.32V75.19l.91-.19V70.7l-1-.19V69.38H787V75l.9.19v1.13Zm.84-8.41v-1.6H787v1.6Z" transform="translate(-410.04 -4.47)"/><path class="cls-11" d="M791.38,76.45a2,2,0,0,1-1.5-.53,2.39,2.39,0,0,1-.52-1.69V70.69h-1V69.38h1v-1.7h1.87v1.7h1.27v1.31h-1.27v3.54a.79.79,0,0,0,.17.57.6.6,0,0,0,.46.18l.34,0,.3,0,.17,1.35a5.82,5.82,0,0,1-.63.14A5,5,0,0,1,791.38,76.45Z" transform="translate(-410.04 -4.47)"/><path class="cls-11" d="M793.64,76.32V75.21l3.61-4.52h-1.87l-.21,1.18H793.8V69.38h5.7v1.2L796.09,75h2l.27-1.28h1.32v2.62Z" transform="translate(-410.04 -4.47)"/><path class="cls-11" d="M803.93,76.45a3.31,3.31,0,0,1-1.74-.44A3,3,0,0,1,801,74.8a3.7,3.7,0,0,1-.4-1.75v-.26A4.1,4.1,0,0,1,801,71a3.11,3.11,0,0,1,1.09-1.26,2.85,2.85,0,0,1,1.66-.45,3.08,3.08,0,0,1,1.58.37,2.48,2.48,0,0,1,1,1.07,4,4,0,0,1,.33,1.69v1h-4.08v0a2,2,0,0,0,.22.81,1.39,1.39,0,0,0,.54.56,1.59,1.59,0,0,0,.84.21A3.61,3.61,0,0,0,806,74.5l.51,1.15a3.61,3.61,0,0,1-1.09.57A4.28,4.28,0,0,1,803.93,76.45Zm-1.34-4.28h2.32V72a2.29,2.29,0,0,0-.11-.73,1,1,0,0,0-.36-.47,1.15,1.15,0,0,0-.64-.17,1,1,0,0,0-.63.2,1.35,1.35,0,0,0-.4.53,3,3,0,0,0-.2.77Z" transform="translate(-410.04 -4.47)"/><path class="cls-11" d="M807.59,76.32V75.19l.9-.19V70.7l-1-.19V69.38h2.74l.08.91a2.35,2.35,0,0,1,.83-.77,2.46,2.46,0,0,1,1.17-.27,2.19,2.19,0,0,1,1.14.29,1.84,1.84,0,0,1,.72.89,2.39,2.39,0,0,1,.83-.87,2.27,2.27,0,0,1,1.21-.31,2,2,0,0,1,1.62.7,3.24,3.24,0,0,1,.59,2.13V75l.91.19v1.13h-3.59V75.19l.81-.19V72.07a1.69,1.69,0,0,0-.26-1.07.9.9,0,0,0-.73-.3,1.16,1.16,0,0,0-.74.25,1.41,1.41,0,0,0-.43.65V75l.75.19v1.13h-3.38V75.19l.76-.19V72.07a1.77,1.77,0,0,0-.25-1.06.94.94,0,0,0-.75-.31,1.46,1.46,0,0,0-.69.16,1.32,1.32,0,0,0-.47.47V75l.81.19v1.13Z" transform="translate(-410.04 -4.47)"/></svg>